solid csg.js
facet normal -1 0 0
outer loop
vertex 0 1 6
vertex 0 1 5
vertex 0 0 5
endloop
endfacet
facet normal -1 0 0
outer loop
vertex 0 1 6
vertex 0 0 5
vertex 0 0 6
endloop
endfacet
facet normal -1 0 0
outer loop
vertex 0 1 5
vertex 0 2 5
vertex 0 2 4
endloop
endfacet
facet normal -1 0 0
outer loop
vertex 0 1 5
vertex 0 2 4
vertex 0 0 4
endloop
endfacet
facet normal -1 0 0
outer loop
vertex 0 1 5
vertex 0 0 4
vertex 0 0 5
endloop
endfacet
facet normal -1 0 0
outer loop
vertex 0 2 4
vertex 0 3 4
vertex 0 3 3
endloop
endfacet
facet normal -1 0 0
outer loop
vertex 0 2 4
vertex 0 3 3
vertex 0 0 3
endloop
endfacet
facet normal -1 0 0
outer loop
vertex 0 2 4
vertex 0 0 3
vertex 0 0 4
endloop
endfacet
facet normal -1 0 0
outer loop
vertex 0 3 3
vertex 0 4 3
vertex 0 4 2
endloop
endfacet
facet normal -1 0 0
outer loop
vertex 0 3 3
vertex 0 4 2
vertex 0 0 2
endloop
endfacet
facet normal -1 0 0
outer loop
vertex 0 3 3
vertex 0 0 2
vertex 0 0 3
endloop
endfacet
facet normal -1 0 0
outer loop
vertex 0 4 2
vertex 0 5 2
vertex 0 5 1
endloop
endfacet
facet normal -1 0 0
outer loop
vertex 0 4 2
vertex 0 5 1
vertex 0 0 1
endloop
endfacet
facet normal -1 0 0
outer loop
vertex 0 4 2
vertex 0 0 1
vertex 0 0 2
endloop
endfacet
facet normal -1 0 0
outer loop
vertex 0 5 1
vertex 0 6 1
vertex 0 6 0
endloop
endfacet
facet normal -1 0 0
outer loop
vertex 0 5 1
vertex 0 6 0
vertex 0 0 0
endloop
endfacet
facet normal -1 0 0
outer loop
vertex 0 5 1
vertex 0 0 0
vertex 0 0 1
endloop
endfacet
facet normal 1 0 0
outer loop
vertex 6 0 0
vertex 6 6 0
vertex 6 6 1
endloop
endfacet
facet normal 1 0 0
outer loop
vertex 6 0 0
vertex 6 6 1
vertex 6 5 1
endloop
endfacet
facet normal 1 0 0
outer loop
vertex 6 0 0
vertex 6 5 1
vertex 6 0 1
endloop
endfacet
facet normal 0 -1 0
outer loop
vertex 6 0 0
vertex 6 0 1
vertex 5 0 1
endloop
endfacet
facet normal 0 -1 0
outer loop
vertex 6 0 0
vertex 5 0 1
vertex 0 0 1
endloop
endfacet
facet normal 0 -1 0
outer loop
vertex 6 0 0
vertex 0 0 1
vertex 0 0 0
endloop
endfacet
facet normal 0 -1 0
outer loop
vertex 5 0 1
vertex 5 0 2
vertex 4 0 2
endloop
endfacet
facet normal 0 -1 0
outer loop
vertex 5 0 1
vertex 4 0 2
vertex 0 0 2
endloop
endfacet
facet normal 0 -1 0
outer loop
vertex 5 0 1
vertex 0 0 2
vertex 0 0 1
endloop
endfacet
facet normal 0 -1 0
outer loop
vertex 4 0 2
vertex 4 0 3
vertex 3 0 3
endloop
endfacet
facet normal 0 -1 0
outer loop
vertex 4 0 2
vertex 3 0 3
vertex 0 0 3
endloop
endfacet
facet normal 0 -1 0
outer loop
vertex 4 0 2
vertex 0 0 3
vertex 0 0 2
endloop
endfacet
facet normal 0 -1 0
outer loop
vertex 3 0 3
vertex 3 0 4
vertex 2 0 4
endloop
endfacet
facet normal 0 -1 0
outer loop
vertex 3 0 3
vertex 2 0 4
vertex 0 0 4
endloop
endfacet
facet normal 0 -1 0
outer loop
vertex 3 0 3
vertex 0 0 4
vertex 0 0 3
endloop
endfacet
facet normal 0 -1 0
outer loop
vertex 2 0 4
vertex 2 0 5
vertex 1 0 5
endloop
endfacet
facet normal 0 -1 0
outer loop
vertex 2 0 4
vertex 1 0 5
vertex 0 0 5
endloop
endfacet
facet normal 0 -1 0
outer loop
vertex 2 0 4
vertex 0 0 5
vertex 0 0 4
endloop
endfacet
facet normal 0 -1 0
outer loop
vertex 1 0 5
vertex 1 0 6
vertex 0 0 6
endloop
endfacet
facet normal 0 -1 0
outer loop
vertex 1 0 5
vertex 0 0 6
vertex 0 0 5
endloop
endfacet
facet normal 0 1 0
outer loop
vertex 0 6 0
vertex 0 6 1
vertex 6 6 1
endloop
endfacet
facet normal 0 1 0
outer loop
vertex 0 6 0
vertex 6 6 1
vertex 6 6 0
endloop
endfacet
facet normal 0 0 -1
outer loop
vertex 0 0 0
vertex 0 6 0
vertex 6 6 0
endloop
endfacet
facet normal 0 0 -1
outer loop
vertex 0 0 0
vertex 6 6 0
vertex 6 0 0
endloop
endfacet
facet normal 0 0 1
outer loop
vertex 6 0 1
vertex 6 5 1
vertex 5 5 1
endloop
endfacet
facet normal 0 0 1
outer loop
vertex 6 0 1
vertex 5 5 1
vertex 5 0 1
endloop
endfacet
facet normal 0 0 1
outer loop
vertex 5 5 1
vertex 6 5 1
vertex 6 6 1
endloop
endfacet
facet normal 0 0 1
outer loop
vertex 5 5 1
vertex 6 6 1
vertex 0 6 1
endloop
endfacet
facet normal 0 0 1
outer loop
vertex 5 5 1
vertex 0 6 1
vertex 0 5 1
endloop
endfacet
facet normal 1 0 0
outer loop
vertex 5 0 1
vertex 5 5 1
vertex 5 5 2
endloop
endfacet
facet normal 1 0 0
outer loop
vertex 5 0 1
vertex 5 5 2
vertex 5 4 2
endloop
endfacet
facet normal 1 0 0
outer loop
vertex 5 0 1
vertex 5 4 2
vertex 5 0 2
endloop
endfacet
facet normal 0 1 0
outer loop
vertex 0 5 1
vertex 0 5 2
vertex 5 5 2
endloop
endfacet
facet normal 0 1 0
outer loop
vertex 0 5 1
vertex 5 5 2
vertex 5 5 1
endloop
endfacet
facet normal 0 0 1
outer loop
vertex 5 0 2
vertex 5 4 2
vertex 4 4 2
endloop
endfacet
facet normal 0 0 1
outer loop
vertex 5 0 2
vertex 4 4 2
vertex 4 0 2
endloop
endfacet
facet normal 0 0 1
outer loop
vertex 4 4 2
vertex 5 4 2
vertex 5 5 2
endloop
endfacet
facet normal 0 0 1
outer loop
vertex 4 4 2
vertex 5 5 2
vertex 0 5 2
endloop
endfacet
facet normal 0 0 1
outer loop
vertex 4 4 2
vertex 0 5 2
vertex 0 4 2
endloop
endfacet
facet normal 1 0 0
outer loop
vertex 4 0 2
vertex 4 4 2
vertex 4 4 3
endloop
endfacet
facet normal 1 0 0
outer loop
vertex 4 0 2
vertex 4 4 3
vertex 4 3 3
endloop
endfacet
facet normal 1 0 0
outer loop
vertex 4 0 2
vertex 4 3 3
vertex 4 0 3
endloop
endfacet
facet normal 0 1 0
outer loop
vertex 0 4 2
vertex 0 4 3
vertex 4 4 3
endloop
endfacet
facet normal 0 1 0
outer loop
vertex 0 4 2
vertex 4 4 3
vertex 4 4 2
endloop
endfacet
facet normal 0 0 1
outer loop
vertex 4 0 3
vertex 4 3 3
vertex 3 3 3
endloop
endfacet
facet normal 0 0 1
outer loop
vertex 4 0 3
vertex 3 3 3
vertex 3 0 3
endloop
endfacet
facet normal 0 0 1
outer loop
vertex 3 3 3
vertex 4 3 3
vertex 4 4 3
endloop
endfacet
facet normal 0 0 1
outer loop
vertex 3 3 3
vertex 4 4 3
vertex 0 4 3
endloop
endfacet
facet normal 0 0 1
outer loop
vertex 3 3 3
vertex 0 4 3
vertex 0 3 3
endloop
endfacet
facet normal 1 0 0
outer loop
vertex 3 0 3
vertex 3 3 3
vertex 3 3 4
endloop
endfacet
facet normal 1 0 0
outer loop
vertex 3 0 3
vertex 3 3 4
vertex 3 2 4
endloop
endfacet
facet normal 1 0 0
outer loop
vertex 3 0 3
vertex 3 2 4
vertex 3 0 4
endloop
endfacet
facet normal 0 1 0
outer loop
vertex 0 3 3
vertex 0 3 4
vertex 3 3 4
endloop
endfacet
facet normal 0 1 0
outer loop
vertex 0 3 3
vertex 3 3 4
vertex 3 3 3
endloop
endfacet
facet normal 0 0 1
outer loop
vertex 3 0 4
vertex 3 2 4
vertex 2 2 4
endloop
endfacet
facet normal 0 0 1
outer loop
vertex 3 0 4
vertex 2 2 4
vertex 2 0 4
endloop
endfacet
facet normal 0 0 1
outer loop
vertex 2 2 4
vertex 3 2 4
vertex 3 3 4
endloop
endfacet
facet normal 0 0 1
outer loop
vertex 2 2 4
vertex 3 3 4
vertex 0 3 4
endloop
endfacet
facet normal 0 0 1
outer loop
vertex 2 2 4
vertex 0 3 4
vertex 0 2 4
endloop
endfacet
facet normal 1 0 0
outer loop
vertex 2 0 4
vertex 2 2 4
vertex 2 2 5
endloop
endfacet
facet normal 1 0 0
outer loop
vertex 2 0 4
vertex 2 2 5
vertex 2 1 5
endloop
endfacet
facet normal 1 0 0
outer loop
vertex 2 0 4
vertex 2 1 5
vertex 2 0 5
endloop
endfacet
facet normal 0 1 0
outer loop
vertex 0 2 4
vertex 0 2 5
vertex 2 2 5
endloop
endfacet
facet normal 0 1 0
outer loop
vertex 0 2 4
vertex 2 2 5
vertex 2 2 4
endloop
endfacet
facet normal 0 0 1
outer loop
vertex 2 0 5
vertex 2 1 5
vertex 1 1 5
endloop
endfacet
facet normal 0 0 1
outer loop
vertex 2 0 5
vertex 1 1 5
vertex 1 0 5
endloop
endfacet
facet normal 0 0 1
outer loop
vertex 1 1 5
vertex 2 1 5
vertex 2 2 5
endloop
endfacet
facet normal 0 0 1
outer loop
vertex 1 1 5
vertex 2 2 5
vertex 0 2 5
endloop
endfacet
facet normal 0 0 1
outer loop
vertex 1 1 5
vertex 0 2 5
vertex 0 1 5
endloop
endfacet
facet normal 1 0 0
outer loop
vertex 1 0 5
vertex 1 1 5
vertex 1 1 6
endloop
endfacet
facet normal 1 0 0
outer loop
vertex 1 0 5
vertex 1 1 6
vertex 1 0 6
endloop
endfacet
facet normal 0 1 0
outer loop
vertex 0 1 5
vertex 0 1 6
vertex 1 1 6
endloop
endfacet
facet normal 0 1 0
outer loop
vertex 0 1 5
vertex 1 1 6
vertex 1 1 5
endloop
endfacet
facet normal 0 0 1
outer loop
vertex 0 0 6
vertex 1 0 6
vertex 1 1 6
endloop
endfacet
facet normal 0 0 1
outer loop
vertex 0 0 6
vertex 1 1 6
vertex 0 1 6
endloop
endfacet
endsolid csg.js
